<svg xmlns="http://www.w3.org/2000/svg" width="773" height="137" viewBox="0 0 773 137" role="img" aria-labelledby="title">
  <title id="title">AI token usage heatmap</title>
  <style>text{font-family:-apple-system, "Segoe UI", sans-serif;font-size:10px;fill:#57606a}</style>
  <text x="72" y="10">Aug</text>
  <text x="142" y="10">Sep</text>
  <text x="198" y="10">Oct</text>
  <text x="254" y="10">Nov</text>
  <text x="324" y="10">Dec</text>
  <text x="380" y="10">Jan</text>
  <text x="450" y="10">Feb</text>
  <text x="506" y="10">Mar</text>
  <text x="562" y="10">Apr</text>
  <text x="618" y="10">May</text>
  <text x="688" y="10">Jun</text>
  <text x="744" y="10">Jul</text>
  <text x="0" y="41">Mon</text>
  <text x="0" y="69">Wed</text>
  <text x="0" y="97">Fri</text>
  <rect x="30" y="18" width="11" height="11" rx="2" fill="#ebedf0" data-date="2025-07-06" data-level="0"/>
  <rect x="30" y="32" width="11" height="11" rx="2" fill="#ebedf0" data-date="2025-07-07" data-level="0"/>
  <rect x="30" y="46" width="11" height="11" rx="2" fill="#ebedf0" data-date="2025-07-08" data-level="0"/>
  <rect x="30" y="60" width="11" height="11" rx="2" fill="#ebedf0" data-date="2025-07-09" data-level="0"/>
  <rect x="30" y="74" width="11" height="11" rx="2" fill="#ebedf0" data-date="2025-07-10" data-level="0"/>
  <rect x="30" y="88" width="11" height="11" rx="2" fill="#ebedf0" data-date="2025-07-11" data-level="0"/>
  <rect x="30" y="102" width="11" height="11" rx="2" fill="#ebedf0" data-date="2025-07-12" data-level="0"/>
  <rect x="44" y="18" width="11" height="11" rx="2" fill="#ebedf0" data-date="2025-07-13" data-level="0"/>
  <rect x="44" y="32" width="11" height="11" rx="2" fill="#ebedf0" data-date="2025-07-14" data-level="0"/>
  <rect x="44" y="46" width="11" height="11" rx="2" fill="#ebedf0" data-date="2025-07-15" data-level="0"/>
  <rect x="44" y="60" width="11" height="11" rx="2" fill="#ebedf0" data-date="2025-07-16" data-level="0"/>
  <rect x="44" y="74" width="11" height="11" rx="2" fill="#ebedf0" data-date="2025-07-17" data-level="0"/>
  <rect x="44" y="88" width="11" height="11" rx="2" fill="#ebedf0" data-date="2025-07-18" data-level="0"/>
  <rect x="44" y="102" width="11" height="11" rx="2" fill="#ebedf0" data-date="2025-07-19" data-level="0"/>
  <rect x="58" y="18" width="11" height="11" rx="2" fill="#ebedf0" data-date="2025-07-20" data-level="0"/>
  <rect x="58" y="32" width="11" height="11" rx="2" fill="#ebedf0" data-date="2025-07-21" data-level="0"/>
  <rect x="58" y="46" width="11" height="11" rx="2" fill="#ebedf0" data-date="2025-07-22" data-level="0"/>
  <rect x="58" y="60" width="11" height="11" rx="2" fill="#ebedf0" data-date="2025-07-23" data-level="0"/>
  <rect x="58" y="74" width="11" height="11" rx="2" fill="#ebedf0" data-date="2025-07-24" data-level="0"/>
  <rect x="58" y="88" width="11" height="11" rx="2" fill="#ebedf0" data-date="2025-07-25" data-level="0"/>
  <rect x="58" y="102" width="11" height="11" rx="2" fill="#ebedf0" data-date="2025-07-26" data-level="0"/>
  <rect x="72" y="18" width="11" height="11" rx="2" fill="#ebedf0" data-date="2025-07-27" data-level="0"/>
  <rect x="72" y="32" width="11" height="11" rx="2" fill="#ebedf0" data-date="2025-07-28" data-level="0"/>
  <rect x="72" y="46" width="11" height="11" rx="2" fill="#ebedf0" data-date="2025-07-29" data-level="0"/>
  <rect x="72" y="60" width="11" height="11" rx="2" fill="#ebedf0" data-date="2025-07-30" data-level="0"/>
  <rect x="72" y="74" width="11" height="11" rx="2" fill="#ebedf0" data-date="2025-07-31" data-level="0"/>
  <rect x="72" y="88" width="11" height="11" rx="2" fill="#ebedf0" data-date="2025-08-01" data-level="0"/>
  <rect x="72" y="102" width="11" height="11" rx="2" fill="#ebedf0" data-date="2025-08-02" data-level="0"/>
  <rect x="86" y="18" width="11" height="11" rx="2" fill="#ebedf0" data-date="2025-08-03" data-level="0"/>
  <rect x="86" y="32" width="11" height="11" rx="2" fill="#ebedf0" data-date="2025-08-04" data-level="0"/>
  <rect x="86" y="46" width="11" height="11" rx="2" fill="#ebedf0" data-date="2025-08-05" data-level="0"/>
  <rect x="86" y="60" width="11" height="11" rx="2" fill="#ebedf0" data-date="2025-08-06" data-level="0"/>
  <rect x="86" y="74" width="11" height="11" rx="2" fill="#ebedf0" data-date="2025-08-07" data-level="0"/>
  <rect x="86" y="88" width="11" height="11" rx="2" fill="#ebedf0" data-date="2025-08-08" data-level="0"/>
  <rect x="86" y="102" width="11" height="11" rx="2" fill="#ebedf0" data-date="2025-08-09" data-level="0"/>
  <rect x="100" y="18" width="11" height="11" rx="2" fill="#ebedf0" data-date="2025-08-10" data-level="0"/>
  <rect x="100" y="32" width="11" height="11" rx="2" fill="#ebedf0" data-date="2025-08-11" data-level="0"/>
  <rect x="100" y="46" width="11" height="11" rx="2" fill="#ebedf0" data-date="2025-08-12" data-level="0"/>
  <rect x="100" y="60" width="11" height="11" rx="2" fill="#ebedf0" data-date="2025-08-13" data-level="0"/>
  <rect x="100" y="74" width="11" height="11" rx="2" fill="#ebedf0" data-date="2025-08-14" data-level="0"/>
  <rect x="100" y="88" width="11" height="11" rx="2" fill="#ebedf0" data-date="2025-08-15" data-level="0"/>
  <rect x="100" y="102" width="11" height="11" rx="2" fill="#ebedf0" data-date="2025-08-16" data-level="0"/>
  <rect x="114" y="18" width="11" height="11" rx="2" fill="#ebedf0" data-date="2025-08-17" data-level="0"/>
  <rect x="114" y="32" width="11" height="11" rx="2" fill="#ebedf0" data-date="2025-08-18" data-level="0"/>
  <rect x="114" y="46" width="11" height="11" rx="2" fill="#ebedf0" data-date="2025-08-19" data-level="0"/>
  <rect x="114" y="60" width="11" height="11" rx="2" fill="#ebedf0" data-date="2025-08-20" data-level="0"/>
  <rect x="114" y="74" width="11" height="11" rx="2" fill="#ebedf0" data-date="2025-08-21" data-level="0"/>
  <rect x="114" y="88" width="11" height="11" rx="2" fill="#ebedf0" data-date="2025-08-22" data-level="0"/>
  <rect x="114" y="102" width="11" height="11" rx="2" fill="#ebedf0" data-date="2025-08-23" data-level="0"/>
  <rect x="128" y="18" width="11" height="11" rx="2" fill="#ebedf0" data-date="2025-08-24" data-level="0"/>
  <rect x="128" y="32" width="11" height="11" rx="2" fill="#ebedf0" data-date="2025-08-25" data-level="0"/>
  <rect x="128" y="46" width="11" height="11" rx="2" fill="#ebedf0" data-date="2025-08-26" data-level="0"/>
  <rect x="128" y="60" width="11" height="11" rx="2" fill="#ebedf0" data-date="2025-08-27" data-level="0"/>
  <rect x="128" y="74" width="11" height="11" rx="2" fill="#ebedf0" data-date="2025-08-28" data-level="0"/>
  <rect x="128" y="88" width="11" height="11" rx="2" fill="#ebedf0" data-date="2025-08-29" data-level="0"/>
  <rect x="128" y="102" width="11" height="11" rx="2" fill="#ebedf0" data-date="2025-08-30" data-level="0"/>
  <rect x="142" y="18" width="11" height="11" rx="2" fill="#ebedf0" data-date="2025-08-31" data-level="0"/>
  <rect x="142" y="32" width="11" height="11" rx="2" fill="#ebedf0" data-date="2025-09-01" data-level="0"/>
  <rect x="142" y="46" width="11" height="11" rx="2" fill="#ebedf0" data-date="2025-09-02" data-level="0"/>
  <rect x="142" y="60" width="11" height="11" rx="2" fill="#ebedf0" data-date="2025-09-03" data-level="0"/>
  <rect x="142" y="74" width="11" height="11" rx="2" fill="#ebedf0" data-date="2025-09-04" data-level="0"/>
  <rect x="142" y="88" width="11" height="11" rx="2" fill="#ebedf0" data-date="2025-09-05" data-level="0"/>
  <rect x="142" y="102" width="11" height="11" rx="2" fill="#ebedf0" data-date="2025-09-06" data-level="0"/>
  <rect x="156" y="18" width="11" height="11" rx="2" fill="#ebedf0" data-date="2025-09-07" data-level="0"/>
  <rect x="156" y="32" width="11" height="11" rx="2" fill="#ebedf0" data-date="2025-09-08" data-level="0"/>
  <rect x="156" y="46" width="11" height="11" rx="2" fill="#ebedf0" data-date="2025-09-09" data-level="0"/>
  <rect x="156" y="60" width="11" height="11" rx="2" fill="#ebedf0" data-date="2025-09-10" data-level="0"/>
  <rect x="156" y="74" width="11" height="11" rx="2" fill="#ebedf0" data-date="2025-09-11" data-level="0"/>
  <rect x="156" y="88" width="11" height="11" rx="2" fill="#ebedf0" data-date="2025-09-12" data-level="0"/>
  <rect x="156" y="102" width="11" height="11" rx="2" fill="#ebedf0" data-date="2025-09-13" data-level="0"/>
  <rect x="170" y="18" width="11" height="11" rx="2" fill="#ebedf0" data-date="2025-09-14" data-level="0"/>
  <rect x="170" y="32" width="11" height="11" rx="2" fill="#ebedf0" data-date="2025-09-15" data-level="0"/>
  <rect x="170" y="46" width="11" height="11" rx="2" fill="#ebedf0" data-date="2025-09-16" data-level="0"/>
  <rect x="170" y="60" width="11" height="11" rx="2" fill="#ebedf0" data-date="2025-09-17" data-level="0"/>
  <rect x="170" y="74" width="11" height="11" rx="2" fill="#ebedf0" data-date="2025-09-18" data-level="0"/>
  <rect x="170" y="88" width="11" height="11" rx="2" fill="#ebedf0" data-date="2025-09-19" data-level="0"/>
  <rect x="170" y="102" width="11" height="11" rx="2" fill="#ebedf0" data-date="2025-09-20" data-level="0"/>
  <rect x="184" y="18" width="11" height="11" rx="2" fill="#ebedf0" data-date="2025-09-21" data-level="0"/>
  <rect x="184" y="32" width="11" height="11" rx="2" fill="#ebedf0" data-date="2025-09-22" data-level="0"/>
  <rect x="184" y="46" width="11" height="11" rx="2" fill="#ebedf0" data-date="2025-09-23" data-level="0"/>
  <rect x="184" y="60" width="11" height="11" rx="2" fill="#ebedf0" data-date="2025-09-24" data-level="0"/>
  <rect x="184" y="74" width="11" height="11" rx="2" fill="#ebedf0" data-date="2025-09-25" data-level="0"/>
  <rect x="184" y="88" width="11" height="11" rx="2" fill="#ebedf0" data-date="2025-09-26" data-level="0"/>
  <rect x="184" y="102" width="11" height="11" rx="2" fill="#ebedf0" data-date="2025-09-27" data-level="0"/>
  <rect x="198" y="18" width="11" height="11" rx="2" fill="#ebedf0" data-date="2025-09-28" data-level="0"/>
  <rect x="198" y="32" width="11" height="11" rx="2" fill="#ebedf0" data-date="2025-09-29" data-level="0"/>
  <rect x="198" y="46" width="11" height="11" rx="2" fill="#ebedf0" data-date="2025-09-30" data-level="0"/>
  <rect x="198" y="60" width="11" height="11" rx="2" fill="#ebedf0" data-date="2025-10-01" data-level="0"/>
  <rect x="198" y="74" width="11" height="11" rx="2" fill="#ebedf0" data-date="2025-10-02" data-level="0"/>
  <rect x="198" y="88" width="11" height="11" rx="2" fill="#ebedf0" data-date="2025-10-03" data-level="0"/>
  <rect x="198" y="102" width="11" height="11" rx="2" fill="#ebedf0" data-date="2025-10-04" data-level="0"/>
  <rect x="212" y="18" width="11" height="11" rx="2" fill="#ebedf0" data-date="2025-10-05" data-level="0"/>
  <rect x="212" y="32" width="11" height="11" rx="2" fill="#ebedf0" data-date="2025-10-06" data-level="0"/>
  <rect x="212" y="46" width="11" height="11" rx="2" fill="#ebedf0" data-date="2025-10-07" data-level="0"/>
  <rect x="212" y="60" width="11" height="11" rx="2" fill="#ebedf0" data-date="2025-10-08" data-level="0"/>
  <rect x="212" y="74" width="11" height="11" rx="2" fill="#ebedf0" data-date="2025-10-09" data-level="0"/>
  <rect x="212" y="88" width="11" height="11" rx="2" fill="#ebedf0" data-date="2025-10-10" data-level="0"/>
  <rect x="212" y="102" width="11" height="11" rx="2" fill="#ebedf0" data-date="2025-10-11" data-level="0"/>
  <rect x="226" y="18" width="11" height="11" rx="2" fill="#ebedf0" data-date="2025-10-12" data-level="0"/>
  <rect x="226" y="32" width="11" height="11" rx="2" fill="#ebedf0" data-date="2025-10-13" data-level="0"/>
  <rect x="226" y="46" width="11" height="11" rx="2" fill="#ebedf0" data-date="2025-10-14" data-level="0"/>
  <rect x="226" y="60" width="11" height="11" rx="2" fill="#ebedf0" data-date="2025-10-15" data-level="0"/>
  <rect x="226" y="74" width="11" height="11" rx="2" fill="#ebedf0" data-date="2025-10-16" data-level="0"/>
  <rect x="226" y="88" width="11" height="11" rx="2" fill="#ebedf0" data-date="2025-10-17" data-level="0"/>
  <rect x="226" y="102" width="11" height="11" rx="2" fill="#ebedf0" data-date="2025-10-18" data-level="0"/>
  <rect x="240" y="18" width="11" height="11" rx="2" fill="#ebedf0" data-date="2025-10-19" data-level="0"/>
  <rect x="240" y="32" width="11" height="11" rx="2" fill="#ebedf0" data-date="2025-10-20" data-level="0"/>
  <rect x="240" y="46" width="11" height="11" rx="2" fill="#ebedf0" data-date="2025-10-21" data-level="0"/>
  <rect x="240" y="60" width="11" height="11" rx="2" fill="#ebedf0" data-date="2025-10-22" data-level="0"/>
  <rect x="240" y="74" width="11" height="11" rx="2" fill="#ebedf0" data-date="2025-10-23" data-level="0"/>
  <rect x="240" y="88" width="11" height="11" rx="2" fill="#ebedf0" data-date="2025-10-24" data-level="0"/>
  <rect x="240" y="102" width="11" height="11" rx="2" fill="#ebedf0" data-date="2025-10-25" data-level="0"/>
  <rect x="254" y="18" width="11" height="11" rx="2" fill="#ebedf0" data-date="2025-10-26" data-level="0"/>
  <rect x="254" y="32" width="11" height="11" rx="2" fill="#ebedf0" data-date="2025-10-27" data-level="0"/>
  <rect x="254" y="46" width="11" height="11" rx="2" fill="#ebedf0" data-date="2025-10-28" data-level="0"/>
  <rect x="254" y="60" width="11" height="11" rx="2" fill="#ebedf0" data-date="2025-10-29" data-level="0"/>
  <rect x="254" y="74" width="11" height="11" rx="2" fill="#ebedf0" data-date="2025-10-30" data-level="0"/>
  <rect x="254" y="88" width="11" height="11" rx="2" fill="#ebedf0" data-date="2025-10-31" data-level="0"/>
  <rect x="254" y="102" width="11" height="11" rx="2" fill="#ebedf0" data-date="2025-11-01" data-level="0"/>
  <rect x="268" y="18" width="11" height="11" rx="2" fill="#ebedf0" data-date="2025-11-02" data-level="0"/>
  <rect x="268" y="32" width="11" height="11" rx="2" fill="#ebedf0" data-date="2025-11-03" data-level="0"/>
  <rect x="268" y="46" width="11" height="11" rx="2" fill="#ebedf0" data-date="2025-11-04" data-level="0"/>
  <rect x="268" y="60" width="11" height="11" rx="2" fill="#ebedf0" data-date="2025-11-05" data-level="0"/>
  <rect x="268" y="74" width="11" height="11" rx="2" fill="#ebedf0" data-date="2025-11-06" data-level="0"/>
  <rect x="268" y="88" width="11" height="11" rx="2" fill="#ebedf0" data-date="2025-11-07" data-level="0"/>
  <rect x="268" y="102" width="11" height="11" rx="2" fill="#ebedf0" data-date="2025-11-08" data-level="0"/>
  <rect x="282" y="18" width="11" height="11" rx="2" fill="#ebedf0" data-date="2025-11-09" data-level="0"/>
  <rect x="282" y="32" width="11" height="11" rx="2" fill="#ebedf0" data-date="2025-11-10" data-level="0"/>
  <rect x="282" y="46" width="11" height="11" rx="2" fill="#ebedf0" data-date="2025-11-11" data-level="0"/>
  <rect x="282" y="60" width="11" height="11" rx="2" fill="#ebedf0" data-date="2025-11-12" data-level="0"/>
  <rect x="282" y="74" width="11" height="11" rx="2" fill="#ebedf0" data-date="2025-11-13" data-level="0"/>
  <rect x="282" y="88" width="11" height="11" rx="2" fill="#ebedf0" data-date="2025-11-14" data-level="0"/>
  <rect x="282" y="102" width="11" height="11" rx="2" fill="#ebedf0" data-date="2025-11-15" data-level="0"/>
  <rect x="296" y="18" width="11" height="11" rx="2" fill="#ebedf0" data-date="2025-11-16" data-level="0"/>
  <rect x="296" y="32" width="11" height="11" rx="2" fill="#ebedf0" data-date="2025-11-17" data-level="0"/>
  <rect x="296" y="46" width="11" height="11" rx="2" fill="#ebedf0" data-date="2025-11-18" data-level="0"/>
  <rect x="296" y="60" width="11" height="11" rx="2" fill="#ebedf0" data-date="2025-11-19" data-level="0"/>
  <rect x="296" y="74" width="11" height="11" rx="2" fill="#ebedf0" data-date="2025-11-20" data-level="0"/>
  <rect x="296" y="88" width="11" height="11" rx="2" fill="#ebedf0" data-date="2025-11-21" data-level="0"/>
  <rect x="296" y="102" width="11" height="11" rx="2" fill="#ebedf0" data-date="2025-11-22" data-level="0"/>
  <rect x="310" y="18" width="11" height="11" rx="2" fill="#ebedf0" data-date="2025-11-23" data-level="0"/>
  <rect x="310" y="32" width="11" height="11" rx="2" fill="#ebedf0" data-date="2025-11-24" data-level="0"/>
  <rect x="310" y="46" width="11" height="11" rx="2" fill="#ebedf0" data-date="2025-11-25" data-level="0"/>
  <rect x="310" y="60" width="11" height="11" rx="2" fill="#ebedf0" data-date="2025-11-26" data-level="0"/>
  <rect x="310" y="74" width="11" height="11" rx="2" fill="#ebedf0" data-date="2025-11-27" data-level="0"/>
  <rect x="310" y="88" width="11" height="11" rx="2" fill="#ebedf0" data-date="2025-11-28" data-level="0"/>
  <rect x="310" y="102" width="11" height="11" rx="2" fill="#ebedf0" data-date="2025-11-29" data-level="0"/>
  <rect x="324" y="18" width="11" height="11" rx="2" fill="#ebedf0" data-date="2025-11-30" data-level="0"/>
  <rect x="324" y="32" width="11" height="11" rx="2" fill="#ebedf0" data-date="2025-12-01" data-level="0"/>
  <rect x="324" y="46" width="11" height="11" rx="2" fill="#ebedf0" data-date="2025-12-02" data-level="0"/>
  <rect x="324" y="60" width="11" height="11" rx="2" fill="#ebedf0" data-date="2025-12-03" data-level="0"/>
  <rect x="324" y="74" width="11" height="11" rx="2" fill="#ebedf0" data-date="2025-12-04" data-level="0"/>
  <rect x="324" y="88" width="11" height="11" rx="2" fill="#ebedf0" data-date="2025-12-05" data-level="0"/>
  <rect x="324" y="102" width="11" height="11" rx="2" fill="#ebedf0" data-date="2025-12-06" data-level="0"/>
  <rect x="338" y="18" width="11" height="11" rx="2" fill="#ebedf0" data-date="2025-12-07" data-level="0"/>
  <rect x="338" y="32" width="11" height="11" rx="2" fill="#ebedf0" data-date="2025-12-08" data-level="0"/>
  <rect x="338" y="46" width="11" height="11" rx="2" fill="#ebedf0" data-date="2025-12-09" data-level="0"/>
  <rect x="338" y="60" width="11" height="11" rx="2" fill="#ebedf0" data-date="2025-12-10" data-level="0"/>
  <rect x="338" y="74" width="11" height="11" rx="2" fill="#ebedf0" data-date="2025-12-11" data-level="0"/>
  <rect x="338" y="88" width="11" height="11" rx="2" fill="#ebedf0" data-date="2025-12-12" data-level="0"/>
  <rect x="338" y="102" width="11" height="11" rx="2" fill="#ebedf0" data-date="2025-12-13" data-level="0"/>
  <rect x="352" y="18" width="11" height="11" rx="2" fill="#ebedf0" data-date="2025-12-14" data-level="0"/>
  <rect x="352" y="32" width="11" height="11" rx="2" fill="#ebedf0" data-date="2025-12-15" data-level="0"/>
  <rect x="352" y="46" width="11" height="11" rx="2" fill="#ebedf0" data-date="2025-12-16" data-level="0"/>
  <rect x="352" y="60" width="11" height="11" rx="2" fill="#ebedf0" data-date="2025-12-17" data-level="0"/>
  <rect x="352" y="74" width="11" height="11" rx="2" fill="#ebedf0" data-date="2025-12-18" data-level="0"/>
  <rect x="352" y="88" width="11" height="11" rx="2" fill="#ebedf0" data-date="2025-12-19" data-level="0"/>
  <rect x="352" y="102" width="11" height="11" rx="2" fill="#ebedf0" data-date="2025-12-20" data-level="0"/>
  <rect x="366" y="18" width="11" height="11" rx="2" fill="#ebedf0" data-date="2025-12-21" data-level="0"/>
  <rect x="366" y="32" width="11" height="11" rx="2" fill="#ebedf0" data-date="2025-12-22" data-level="0"/>
  <rect x="366" y="46" width="11" height="11" rx="2" fill="#ebedf0" data-date="2025-12-23" data-level="0"/>
  <rect x="366" y="60" width="11" height="11" rx="2" fill="#ebedf0" data-date="2025-12-24" data-level="0"/>
  <rect x="366" y="74" width="11" height="11" rx="2" fill="#ebedf0" data-date="2025-12-25" data-level="0"/>
  <rect x="366" y="88" width="11" height="11" rx="2" fill="#ebedf0" data-date="2025-12-26" data-level="0"/>
  <rect x="366" y="102" width="11" height="11" rx="2" fill="#ebedf0" data-date="2025-12-27" data-level="0"/>
  <rect x="380" y="18" width="11" height="11" rx="2" fill="#ebedf0" data-date="2025-12-28" data-level="0"/>
  <rect x="380" y="32" width="11" height="11" rx="2" fill="#ebedf0" data-date="2025-12-29" data-level="0"/>
  <rect x="380" y="46" width="11" height="11" rx="2" fill="#ebedf0" data-date="2025-12-30" data-level="0"/>
  <rect x="380" y="60" width="11" height="11" rx="2" fill="#ebedf0" data-date="2025-12-31" data-level="0"/>
  <rect x="380" y="74" width="11" height="11" rx="2" fill="#ebedf0" data-date="2026-01-01" data-level="0"/>
  <rect x="380" y="88" width="11" height="11" rx="2" fill="#ebedf0" data-date="2026-01-02" data-level="0"/>
  <rect x="380" y="102" width="11" height="11" rx="2" fill="#ebedf0" data-date="2026-01-03" data-level="0"/>
  <rect x="394" y="18" width="11" height="11" rx="2" fill="#ebedf0" data-date="2026-01-04" data-level="0"/>
  <rect x="394" y="32" width="11" height="11" rx="2" fill="#ebedf0" data-date="2026-01-05" data-level="0"/>
  <rect x="394" y="46" width="11" height="11" rx="2" fill="#ebedf0" data-date="2026-01-06" data-level="0"/>
  <rect x="394" y="60" width="11" height="11" rx="2" fill="#ebedf0" data-date="2026-01-07" data-level="0"/>
  <rect x="394" y="74" width="11" height="11" rx="2" fill="#ebedf0" data-date="2026-01-08" data-level="0"/>
  <rect x="394" y="88" width="11" height="11" rx="2" fill="#ebedf0" data-date="2026-01-09" data-level="0"/>
  <rect x="394" y="102" width="11" height="11" rx="2" fill="#ebedf0" data-date="2026-01-10" data-level="0"/>
  <rect x="408" y="18" width="11" height="11" rx="2" fill="#ebedf0" data-date="2026-01-11" data-level="0"/>
  <rect x="408" y="32" width="11" height="11" rx="2" fill="#ebedf0" data-date="2026-01-12" data-level="0"/>
  <rect x="408" y="46" width="11" height="11" rx="2" fill="#ebedf0" data-date="2026-01-13" data-level="0"/>
  <rect x="408" y="60" width="11" height="11" rx="2" fill="#ebedf0" data-date="2026-01-14" data-level="0"/>
  <rect x="408" y="74" width="11" height="11" rx="2" fill="#ebedf0" data-date="2026-01-15" data-level="0"/>
  <rect x="408" y="88" width="11" height="11" rx="2" fill="#ebedf0" data-date="2026-01-16" data-level="0"/>
  <rect x="408" y="102" width="11" height="11" rx="2" fill="#ebedf0" data-date="2026-01-17" data-level="0"/>
  <rect x="422" y="18" width="11" height="11" rx="2" fill="#ebedf0" data-date="2026-01-18" data-level="0"/>
  <rect x="422" y="32" width="11" height="11" rx="2" fill="#ebedf0" data-date="2026-01-19" data-level="0"/>
  <rect x="422" y="46" width="11" height="11" rx="2" fill="#ebedf0" data-date="2026-01-20" data-level="0"/>
  <rect x="422" y="60" width="11" height="11" rx="2" fill="#ebedf0" data-date="2026-01-21" data-level="0"/>
  <rect x="422" y="74" width="11" height="11" rx="2" fill="#ebedf0" data-date="2026-01-22" data-level="0"/>
  <rect x="422" y="88" width="11" height="11" rx="2" fill="#ebedf0" data-date="2026-01-23" data-level="0"/>
  <rect x="422" y="102" width="11" height="11" rx="2" fill="#ebedf0" data-date="2026-01-24" data-level="0"/>
  <rect x="436" y="18" width="11" height="11" rx="2" fill="#ebedf0" data-date="2026-01-25" data-level="0"/>
  <rect x="436" y="32" width="11" height="11" rx="2" fill="#ebedf0" data-date="2026-01-26" data-level="0"/>
  <rect x="436" y="46" width="11" height="11" rx="2" fill="#ebedf0" data-date="2026-01-27" data-level="0"/>
  <rect x="436" y="60" width="11" height="11" rx="2" fill="#ebedf0" data-date="2026-01-28" data-level="0"/>
  <rect x="436" y="74" width="11" height="11" rx="2" fill="#ebedf0" data-date="2026-01-29" data-level="0"/>
  <rect x="436" y="88" width="11" height="11" rx="2" fill="#ebedf0" data-date="2026-01-30" data-level="0"/>
  <rect x="436" y="102" width="11" height="11" rx="2" fill="#ebedf0" data-date="2026-01-31" data-level="0"/>
  <rect x="450" y="18" width="11" height="11" rx="2" fill="#ebedf0" data-date="2026-02-01" data-level="0"/>
  <rect x="450" y="32" width="11" height="11" rx="2" fill="#ebedf0" data-date="2026-02-02" data-level="0"/>
  <rect x="450" y="46" width="11" height="11" rx="2" fill="#ebedf0" data-date="2026-02-03" data-level="0"/>
  <rect x="450" y="60" width="11" height="11" rx="2" fill="#ebedf0" data-date="2026-02-04" data-level="0"/>
  <rect x="450" y="74" width="11" height="11" rx="2" fill="#ebedf0" data-date="2026-02-05" data-level="0"/>
  <rect x="450" y="88" width="11" height="11" rx="2" fill="#ebedf0" data-date="2026-02-06" data-level="0"/>
  <rect x="450" y="102" width="11" height="11" rx="2" fill="#ebedf0" data-date="2026-02-07" data-level="0"/>
  <rect x="464" y="18" width="11" height="11" rx="2" fill="#ebedf0" data-date="2026-02-08" data-level="0"/>
  <rect x="464" y="32" width="11" height="11" rx="2" fill="#ebedf0" data-date="2026-02-09" data-level="0"/>
  <rect x="464" y="46" width="11" height="11" rx="2" fill="#ebedf0" data-date="2026-02-10" data-level="0"/>
  <rect x="464" y="60" width="11" height="11" rx="2" fill="#ebedf0" data-date="2026-02-11" data-level="0"/>
  <rect x="464" y="74" width="11" height="11" rx="2" fill="#ebedf0" data-date="2026-02-12" data-level="0"/>
  <rect x="464" y="88" width="11" height="11" rx="2" fill="#ebedf0" data-date="2026-02-13" data-level="0"/>
  <rect x="464" y="102" width="11" height="11" rx="2" fill="#ebedf0" data-date="2026-02-14" data-level="0"/>
  <rect x="478" y="18" width="11" height="11" rx="2" fill="#ebedf0" data-date="2026-02-15" data-level="0"/>
  <rect x="478" y="32" width="11" height="11" rx="2" fill="#ebedf0" data-date="2026-02-16" data-level="0"/>
  <rect x="478" y="46" width="11" height="11" rx="2" fill="#ebedf0" data-date="2026-02-17" data-level="0"/>
  <rect x="478" y="60" width="11" height="11" rx="2" fill="#ebedf0" data-date="2026-02-18" data-level="0"/>
  <rect x="478" y="74" width="11" height="11" rx="2" fill="#ebedf0" data-date="2026-02-19" data-level="0"/>
  <rect x="478" y="88" width="11" height="11" rx="2" fill="#ebedf0" data-date="2026-02-20" data-level="0"/>
  <rect x="478" y="102" width="11" height="11" rx="2" fill="#ebedf0" data-date="2026-02-21" data-level="0"/>
  <rect x="492" y="18" width="11" height="11" rx="2" fill="#ebedf0" data-date="2026-02-22" data-level="0"/>
  <rect x="492" y="32" width="11" height="11" rx="2" fill="#ebedf0" data-date="2026-02-23" data-level="0"/>
  <rect x="492" y="46" width="11" height="11" rx="2" fill="#ebedf0" data-date="2026-02-24" data-level="0"/>
  <rect x="492" y="60" width="11" height="11" rx="2" fill="#ebedf0" data-date="2026-02-25" data-level="0"/>
  <rect x="492" y="74" width="11" height="11" rx="2" fill="#ebedf0" data-date="2026-02-26" data-level="0"/>
  <rect x="492" y="88" width="11" height="11" rx="2" fill="#ebedf0" data-date="2026-02-27" data-level="0"/>
  <rect x="492" y="102" width="11" height="11" rx="2" fill="#ebedf0" data-date="2026-02-28" data-level="0"/>
  <rect x="506" y="18" width="11" height="11" rx="2" fill="#ebedf0" data-date="2026-03-01" data-level="0"/>
  <rect x="506" y="32" width="11" height="11" rx="2" fill="#ebedf0" data-date="2026-03-02" data-level="0"/>
  <rect x="506" y="46" width="11" height="11" rx="2" fill="#ebedf0" data-date="2026-03-03" data-level="0"/>
  <rect x="506" y="60" width="11" height="11" rx="2" fill="#ebedf0" data-date="2026-03-04" data-level="0"/>
  <rect x="506" y="74" width="11" height="11" rx="2" fill="#ebedf0" data-date="2026-03-05" data-level="0"/>
  <rect x="506" y="88" width="11" height="11" rx="2" fill="#ebedf0" data-date="2026-03-06" data-level="0"/>
  <rect x="506" y="102" width="11" height="11" rx="2" fill="#ebedf0" data-date="2026-03-07" data-level="0"/>
  <rect x="520" y="18" width="11" height="11" rx="2" fill="#ebedf0" data-date="2026-03-08" data-level="0"/>
  <rect x="520" y="32" width="11" height="11" rx="2" fill="#ebedf0" data-date="2026-03-09" data-level="0"/>
  <rect x="520" y="46" width="11" height="11" rx="2" fill="#ebedf0" data-date="2026-03-10" data-level="0"/>
  <rect x="520" y="60" width="11" height="11" rx="2" fill="#ebedf0" data-date="2026-03-11" data-level="0"/>
  <rect x="520" y="74" width="11" height="11" rx="2" fill="#ebedf0" data-date="2026-03-12" data-level="0"/>
  <rect x="520" y="88" width="11" height="11" rx="2" fill="#ebedf0" data-date="2026-03-13" data-level="0"/>
  <rect x="520" y="102" width="11" height="11" rx="2" fill="#ebedf0" data-date="2026-03-14" data-level="0"/>
  <rect x="534" y="18" width="11" height="11" rx="2" fill="#ebedf0" data-date="2026-03-15" data-level="0"/>
  <rect x="534" y="32" width="11" height="11" rx="2" fill="#ebedf0" data-date="2026-03-16" data-level="0"/>
  <rect x="534" y="46" width="11" height="11" rx="2" fill="#ebedf0" data-date="2026-03-17" data-level="0"/>
  <rect x="534" y="60" width="11" height="11" rx="2" fill="#ebedf0" data-date="2026-03-18" data-level="0"/>
  <rect x="534" y="74" width="11" height="11" rx="2" fill="#ebedf0" data-date="2026-03-19" data-level="0"/>
  <rect x="534" y="88" width="11" height="11" rx="2" fill="#ebedf0" data-date="2026-03-20" data-level="0"/>
  <rect x="534" y="102" width="11" height="11" rx="2" fill="#ebedf0" data-date="2026-03-21" data-level="0"/>
  <rect x="548" y="18" width="11" height="11" rx="2" fill="#ebedf0" data-date="2026-03-22" data-level="0"/>
  <rect x="548" y="32" width="11" height="11" rx="2" fill="#ebedf0" data-date="2026-03-23" data-level="0"/>
  <rect x="548" y="46" width="11" height="11" rx="2" fill="#ebedf0" data-date="2026-03-24" data-level="0"/>
  <rect x="548" y="60" width="11" height="11" rx="2" fill="#ebedf0" data-date="2026-03-25" data-level="0"/>
  <rect x="548" y="74" width="11" height="11" rx="2" fill="#ebedf0" data-date="2026-03-26" data-level="0"/>
  <rect x="548" y="88" width="11" height="11" rx="2" fill="#ebedf0" data-date="2026-03-27" data-level="0"/>
  <rect x="548" y="102" width="11" height="11" rx="2" fill="#ebedf0" data-date="2026-03-28" data-level="0"/>
  <rect x="562" y="18" width="11" height="11" rx="2" fill="#ebedf0" data-date="2026-03-29" data-level="0"/>
  <rect x="562" y="32" width="11" height="11" rx="2" fill="#ebedf0" data-date="2026-03-30" data-level="0"/>
  <rect x="562" y="46" width="11" height="11" rx="2" fill="#ebedf0" data-date="2026-03-31" data-level="0"/>
  <rect x="562" y="60" width="11" height="11" rx="2" fill="#ebedf0" data-date="2026-04-01" data-level="0"/>
  <rect x="562" y="74" width="11" height="11" rx="2" fill="#ebedf0" data-date="2026-04-02" data-level="0"/>
  <rect x="562" y="88" width="11" height="11" rx="2" fill="#ebedf0" data-date="2026-04-03" data-level="0"/>
  <rect x="562" y="102" width="11" height="11" rx="2" fill="#ebedf0" data-date="2026-04-04" data-level="0"/>
  <rect x="576" y="18" width="11" height="11" rx="2" fill="#ebedf0" data-date="2026-04-05" data-level="0"/>
  <rect x="576" y="32" width="11" height="11" rx="2" fill="#ebedf0" data-date="2026-04-06" data-level="0"/>
  <rect x="576" y="46" width="11" height="11" rx="2" fill="#ebedf0" data-date="2026-04-07" data-level="0"/>
  <rect x="576" y="60" width="11" height="11" rx="2" fill="#ebedf0" data-date="2026-04-08" data-level="0"/>
  <rect x="576" y="74" width="11" height="11" rx="2" fill="#ebedf0" data-date="2026-04-09" data-level="0"/>
  <rect x="576" y="88" width="11" height="11" rx="2" fill="#ebedf0" data-date="2026-04-10" data-level="0"/>
  <rect x="576" y="102" width="11" height="11" rx="2" fill="#ebedf0" data-date="2026-04-11" data-level="0"/>
  <rect x="590" y="18" width="11" height="11" rx="2" fill="#ebedf0" data-date="2026-04-12" data-level="0"/>
  <rect x="590" y="32" width="11" height="11" rx="2" fill="#ebedf0" data-date="2026-04-13" data-level="0"/>
  <rect x="590" y="46" width="11" height="11" rx="2" fill="#ebedf0" data-date="2026-04-14" data-level="0"/>
  <rect x="590" y="60" width="11" height="11" rx="2" fill="#ebedf0" data-date="2026-04-15" data-level="0"/>
  <rect x="590" y="74" width="11" height="11" rx="2" fill="#ebedf0" data-date="2026-04-16" data-level="0"/>
  <rect x="590" y="88" width="11" height="11" rx="2" fill="#ebedf0" data-date="2026-04-17" data-level="0"/>
  <rect x="590" y="102" width="11" height="11" rx="2" fill="#ebedf0" data-date="2026-04-18" data-level="0"/>
  <rect x="604" y="18" width="11" height="11" rx="2" fill="#ebedf0" data-date="2026-04-19" data-level="0"/>
  <rect x="604" y="32" width="11" height="11" rx="2" fill="#ebedf0" data-date="2026-04-20" data-level="0"/>
  <rect x="604" y="46" width="11" height="11" rx="2" fill="#ebedf0" data-date="2026-04-21" data-level="0"/>
  <rect x="604" y="60" width="11" height="11" rx="2" fill="#ebedf0" data-date="2026-04-22" data-level="0"/>
  <rect x="604" y="74" width="11" height="11" rx="2" fill="#ebedf0" data-date="2026-04-23" data-level="0"/>
  <rect x="604" y="88" width="11" height="11" rx="2" fill="#ebedf0" data-date="2026-04-24" data-level="0"/>
  <rect x="604" y="102" width="11" height="11" rx="2" fill="#ebedf0" data-date="2026-04-25" data-level="0"/>
  <rect x="618" y="18" width="11" height="11" rx="2" fill="#ebedf0" data-date="2026-04-26" data-level="0"/>
  <rect x="618" y="32" width="11" height="11" rx="2" fill="#ebedf0" data-date="2026-04-27" data-level="0"/>
  <rect x="618" y="46" width="11" height="11" rx="2" fill="#ebedf0" data-date="2026-04-28" data-level="0"/>
  <rect x="618" y="60" width="11" height="11" rx="2" fill="#ebedf0" data-date="2026-04-29" data-level="0"/>
  <rect x="618" y="74" width="11" height="11" rx="2" fill="#ebedf0" data-date="2026-04-30" data-level="0"/>
  <rect x="618" y="88" width="11" height="11" rx="2" fill="#ebedf0" data-date="2026-05-01" data-level="0"/>
  <rect x="618" y="102" width="11" height="11" rx="2" fill="#ebedf0" data-date="2026-05-02" data-level="0"/>
  <rect x="632" y="18" width="11" height="11" rx="2" fill="#ebedf0" data-date="2026-05-03" data-level="0"/>
  <rect x="632" y="32" width="11" height="11" rx="2" fill="#ebedf0" data-date="2026-05-04" data-level="0"/>
  <rect x="632" y="46" width="11" height="11" rx="2" fill="#ebedf0" data-date="2026-05-05" data-level="0"/>
  <rect x="632" y="60" width="11" height="11" rx="2" fill="#ebedf0" data-date="2026-05-06" data-level="0"/>
  <rect x="632" y="74" width="11" height="11" rx="2" fill="#ebedf0" data-date="2026-05-07" data-level="0"/>
  <rect x="632" y="88" width="11" height="11" rx="2" fill="#ebedf0" data-date="2026-05-08" data-level="0"/>
  <rect x="632" y="102" width="11" height="11" rx="2" fill="#ebedf0" data-date="2026-05-09" data-level="0"/>
  <rect x="646" y="18" width="11" height="11" rx="2" fill="#ebedf0" data-date="2026-05-10" data-level="0"/>
  <rect x="646" y="32" width="11" height="11" rx="2" fill="#ebedf0" data-date="2026-05-11" data-level="0"/>
  <rect x="646" y="46" width="11" height="11" rx="2" fill="#ebedf0" data-date="2026-05-12" data-level="0"/>
  <rect x="646" y="60" width="11" height="11" rx="2" fill="#ebedf0" data-date="2026-05-13" data-level="0"/>
  <rect x="646" y="74" width="11" height="11" rx="2" fill="#ebedf0" data-date="2026-05-14" data-level="0"/>
  <rect x="646" y="88" width="11" height="11" rx="2" fill="#ebedf0" data-date="2026-05-15" data-level="0"/>
  <rect x="646" y="102" width="11" height="11" rx="2" fill="#ebedf0" data-date="2026-05-16" data-level="0"/>
  <rect x="660" y="18" width="11" height="11" rx="2" fill="#ebedf0" data-date="2026-05-17" data-level="0"/>
  <rect x="660" y="32" width="11" height="11" rx="2" fill="#ebedf0" data-date="2026-05-18" data-level="0"/>
  <rect x="660" y="46" width="11" height="11" rx="2" fill="#ebedf0" data-date="2026-05-19" data-level="0"/>
  <rect x="660" y="60" width="11" height="11" rx="2" fill="#ebedf0" data-date="2026-05-20" data-level="0"/>
  <rect x="660" y="74" width="11" height="11" rx="2" fill="#ebedf0" data-date="2026-05-21" data-level="0"/>
  <rect x="660" y="88" width="11" height="11" rx="2" fill="#ebedf0" data-date="2026-05-22" data-level="0"/>
  <rect x="660" y="102" width="11" height="11" rx="2" fill="#ebedf0" data-date="2026-05-23" data-level="0"/>
  <rect x="674" y="18" width="11" height="11" rx="2" fill="#ebedf0" data-date="2026-05-24" data-level="0"/>
  <rect x="674" y="32" width="11" height="11" rx="2" fill="#ebedf0" data-date="2026-05-25" data-level="0"/>
  <rect x="674" y="46" width="11" height="11" rx="2" fill="#ebedf0" data-date="2026-05-26" data-level="0"/>
  <rect x="674" y="60" width="11" height="11" rx="2" fill="#ebedf0" data-date="2026-05-27" data-level="0"/>
  <rect x="674" y="74" width="11" height="11" rx="2" fill="#ebedf0" data-date="2026-05-28" data-level="0"/>
  <rect x="674" y="88" width="11" height="11" rx="2" fill="#ebedf0" data-date="2026-05-29" data-level="0"/>
  <rect x="674" y="102" width="11" height="11" rx="2" fill="#ebedf0" data-date="2026-05-30" data-level="0"/>
  <rect x="688" y="18" width="11" height="11" rx="2" fill="#ebedf0" data-date="2026-05-31" data-level="0"/>
  <rect x="688" y="32" width="11" height="11" rx="2" fill="#ebedf0" data-date="2026-06-01" data-level="0"/>
  <rect x="688" y="46" width="11" height="11" rx="2" fill="#ebedf0" data-date="2026-06-02" data-level="0"/>
  <rect x="688" y="60" width="11" height="11" rx="2" fill="#ebedf0" data-date="2026-06-03" data-level="0"/>
  <rect x="688" y="74" width="11" height="11" rx="2" fill="#ebedf0" data-date="2026-06-04" data-level="0"/>
  <rect x="688" y="88" width="11" height="11" rx="2" fill="#ebedf0" data-date="2026-06-05" data-level="0"/>
  <rect x="688" y="102" width="11" height="11" rx="2" fill="#ebedf0" data-date="2026-06-06" data-level="0"/>
  <rect x="702" y="18" width="11" height="11" rx="2" fill="#ebedf0" data-date="2026-06-07" data-level="0"/>
  <rect x="702" y="32" width="11" height="11" rx="2" fill="#ebedf0" data-date="2026-06-08" data-level="0"/>
  <rect x="702" y="46" width="11" height="11" rx="2" fill="#ebedf0" data-date="2026-06-09" data-level="0"/>
  <rect x="702" y="60" width="11" height="11" rx="2" fill="#ebedf0" data-date="2026-06-10" data-level="0"/>
  <rect x="702" y="74" width="11" height="11" rx="2" fill="#ebedf0" data-date="2026-06-11" data-level="0"/>
  <rect x="702" y="88" width="11" height="11" rx="2" fill="#ebedf0" data-date="2026-06-12" data-level="0"/>
  <rect x="702" y="102" width="11" height="11" rx="2" fill="#ebedf0" data-date="2026-06-13" data-level="0"/>
  <rect x="716" y="18" width="11" height="11" rx="2" fill="#ebedf0" data-date="2026-06-14" data-level="0"/>
  <rect x="716" y="32" width="11" height="11" rx="2" fill="#ebedf0" data-date="2026-06-15" data-level="0"/>
  <rect x="716" y="46" width="11" height="11" rx="2" fill="#ebedf0" data-date="2026-06-16" data-level="0"/>
  <rect x="716" y="60" width="11" height="11" rx="2" fill="#ebedf0" data-date="2026-06-17" data-level="0"/>
  <rect x="716" y="74" width="11" height="11" rx="2" fill="#ebedf0" data-date="2026-06-18" data-level="0"/>
  <rect x="716" y="88" width="11" height="11" rx="2" fill="#ebedf0" data-date="2026-06-19" data-level="0"/>
  <rect x="716" y="102" width="11" height="11" rx="2" fill="#ebedf0" data-date="2026-06-20" data-level="0"/>
  <rect x="730" y="18" width="11" height="11" rx="2" fill="#ebedf0" data-date="2026-06-21" data-level="0"/>
  <rect x="730" y="32" width="11" height="11" rx="2" fill="#ebedf0" data-date="2026-06-22" data-level="0"/>
  <rect x="730" y="46" width="11" height="11" rx="2" fill="#ebedf0" data-date="2026-06-23" data-level="0"/>
  <rect x="730" y="60" width="11" height="11" rx="2" fill="#ebedf0" data-date="2026-06-24" data-level="0"/>
  <rect x="730" y="74" width="11" height="11" rx="2" fill="#ebedf0" data-date="2026-06-25" data-level="0"/>
  <rect x="730" y="88" width="11" height="11" rx="2" fill="#ebedf0" data-date="2026-06-26" data-level="0"/>
  <rect x="730" y="102" width="11" height="11" rx="2" fill="#ebedf0" data-date="2026-06-27" data-level="0"/>
  <rect x="744" y="18" width="11" height="11" rx="2" fill="#ebedf0" data-date="2026-06-28" data-level="0"/>
  <rect x="744" y="32" width="11" height="11" rx="2" fill="#ebedf0" data-date="2026-06-29" data-level="0"/>
  <rect x="744" y="46" width="11" height="11" rx="2" fill="#ebedf0" data-date="2026-06-30" data-level="0"/>
  <rect x="744" y="60" width="11" height="11" rx="2" fill="#9be9a8" data-date="2026-07-01" data-level="1"/>
  <rect x="744" y="74" width="11" height="11" rx="2" fill="#ebedf0" data-date="2026-07-02" data-level="0"/>
  <rect x="744" y="88" width="11" height="11" rx="2" fill="#30a14e" data-date="2026-07-03" data-level="3"/>
  <rect x="744" y="102" width="11" height="11" rx="2" fill="#ebedf0" data-date="2026-07-04" data-level="0"/>
  <rect x="758" y="18" width="11" height="11" rx="2" fill="#ebedf0" data-date="2026-07-05" data-level="0"/>
  <rect x="758" y="32" width="11" height="11" rx="2" fill="#ebedf0" data-date="2026-07-06" data-level="0"/>
  <rect x="758" y="46" width="11" height="11" rx="2" fill="#216e39" data-date="2026-07-07" data-level="4"/>
  <rect x="758" y="60" width="11" height="11" rx="2" fill="#ebedf0" data-date="2026-07-08" data-level="0"/>
  <rect x="758" y="74" width="11" height="11" rx="2" fill="#ebedf0" data-date="2026-07-09" data-level="0"/>
  <text x="30" y="133">AI tokens incl. cache · updated 2026-07-09</text>
  <text x="646" y="133">Less</text>
  <rect x="672" y="124" width="11" height="11" rx="2" fill="#ebedf0"/>
  <rect x="686" y="124" width="11" height="11" rx="2" fill="#9be9a8"/>
  <rect x="700" y="124" width="11" height="11" rx="2" fill="#40c463"/>
  <rect x="714" y="124" width="11" height="11" rx="2" fill="#30a14e"/>
  <rect x="728" y="124" width="11" height="11" rx="2" fill="#216e39"/>
  <text x="743" y="133">More</text>
</svg>
